<?xml version="1.0" standalone="no"?>
<!DOCTYPE svg PUBLIC "-//W3C//DTD SVG 20010904//EN"
 "http://www.w3.org/TR/2001/REC-SVG-20010904/DTD/svg10.dtd">
<svg version="1.0" xmlns="http://www.w3.org/2000/svg"
 width="16.000000pt" height="16.000000pt" viewBox="0 0 16.000000 16.000000"
 preserveAspectRatio="xMidYMid meet">
<metadata>
Created by potrace 1.11, written by Peter Selinger 2001-2013
</metadata>
<g transform="translate(0.000000,16.000000) scale(0.005128,-0.005128)"
fill="#000000" stroke="none">
<path d="M1484 2540 c-8 -19 -78 -188 -155 -375 -138 -335 -162 -390 -179
-430 -5 -11 -43 -103 -85 -205 -96 -232 -143 -347 -160 -385 -11 -26 -199
-479 -212 -512 -3 -8 13 -11 53 -10 l58 2 148 355 c82 195 168 402 192 460
146 345 466 1118 466 1126 0 5 -25 10 -56 9 -54 0 -56 -1 -70 -35z"/>
<path d="M2320 2565 c-4 -5 -25 -50 -45 -100 -20 -49 -42 -103 -50 -120 -7
-16 -34 -79 -58 -140 -44 -108 -250 -604 -307 -740 -39 -94 -330 -794 -340
-821 -8 -20 -5 -21 48 -20 50 1 58 4 68 26 7 14 119 281 249 595 131 314 243
584 250 600 8 17 26 59 40 95 14 36 32 79 40 95 20 46 181 433 203 491 l20 50
-54 0 c-30 0 -59 -5 -64 -11z"/>
</g>
</svg>
